<?xml version="1.0" encoding="UTF-8" standalone="no"?>
<svg
   width="23"
   height="23"
   viewBox="0 0 184 166.47619"
   version="1.1"
   id="svg1"
   sodipodi:docname="favicon.svg"
   inkscape:version="1.3 (1:1.3+202307231459+0e150ed6c4)"
   inkscape:export-filename="favicon.png"
   inkscape:export-xdpi="294.12738"
   inkscape:export-ydpi="294.12738"
   xmlns:inkscape="http://www.inkscape.org/namespaces/inkscape"
   xmlns:sodipodi="http://sodipodi.sourceforge.net/DTD/sodipodi-0.dtd"
   xmlns="http://www.w3.org/2000/svg"
   xmlns:svg="http://www.w3.org/2000/svg">
  <defs
     id="defs1" />
  <sodipodi:namedview
     id="namedview1"
     pagecolor="#ffffff"
     bordercolor="#000000"
     borderopacity="0.25"
     inkscape:showpageshadow="2"
     inkscape:pageopacity="0.0"
     inkscape:pagecheckerboard="0"
     inkscape:deskcolor="#d1d1d1"
     inkscape:zoom="19.491552"
     inkscape:cx="0.38478208"
     inkscape:cy="19.162148"
     inkscape:window-width="1920"
     inkscape:window-height="1043"
     inkscape:window-x="0"
     inkscape:window-y="0"
     inkscape:window-maximized="1"
     inkscape:current-layer="svg1"
     inkscape:export-bgcolor="#ffffffff" />
  <g
     id="g1">
    <path
       fill="#dddddd"
       d="m 0.91718757,74.891896 c -1.55089438,-1.56015 -1.55089438,-4.07985 0,-5.64 0.71000003,-0.7 17.56000143,-17.169999 50.84000143,-17.169999 17.21,0 29.919997,8.479998 42.219997,16.669999 11.780004,7.88 22.990004,15.33 37.780004,15.33 29.77,0 45,-14.69 45.18,-14.84 3.78,-3.766665 9.43,1.903335 5.65,5.67 -0.7,0.7 -17.55,17.170001 -50.83,17.170001 -17.21,0 -29.92,-8.480001 -42.220004,-16.670001 -11.78,-7.88 -22.989997,-15.330001 -37.779997,-15.330001 -29.77,0 -45.0000014,14.690001 -45.1800014,14.840001 -1.5707344,1.555945 -4.1058475,1.542508 -5.66000003,-0.03 z"
       id="path1"
       sodipodi:nodetypes="ccscsccscscc"
       style="fill:#0284c7;fill-opacity:1" />
    <path
       fill="#dddddd"
       d="m 1.0316285,81.89163 c -1.55089445,-1.56015 -1.55089445,-4.07985 0,-5.64 0.7099999,-0.7 17.5600015,-17.170001 50.8400015,-17.170001 17.21,0 29.919997,8.480001 42.219997,16.670001 11.780003,7.88 22.990003,15.33 37.780003,15.33 29.77,0 45,-14.69 45.18,-14.84 3.78,-3.76667 9.43,1.90333 5.65,5.67 -0.7,0.7 -17.55,17.170004 -50.83,17.170004 -17.21,0 -29.92,-8.480004 -42.220003,-16.670004 -11.78,-7.88 -22.989997,-15.33 -37.779997,-15.33 -29.77,0 -45.0000016,14.69 -45.1800016,14.84 -1.5707344,1.55594 -4.1058475,1.54251 -5.6599999,-0.03 z"
       id="path2"
       sodipodi:nodetypes="ccscsccscscc"
       style="fill:#0284c7;fill-opacity:1" />
    <path
       fill="#dddddd"
       d="m 0.99107337,87.545075 c -1.55089442,-1.56015 -1.55089442,-4.07985 0,-5.64 0.70999993,-0.7 17.56000163,-17.17 50.84000163,-17.17 17.21,0 29.919997,8.48 42.219997,16.67 11.779998,7.88 22.989998,15.329996 37.779998,15.329996 29.77,0 45,-14.689996 45.18,-14.839996 3.78,-3.76667 9.43,1.90333 5.65,5.67 -0.7,0.7 -17.55,17.169995 -50.83,17.169995 -17.21,0 -29.92,-8.479999 -42.219998,-16.669995 -11.78,-7.88 -22.989997,-15.33 -37.779997,-15.33 -29.77,0 -45.0000017,14.69 -45.1800017,14.84 -1.5707344,1.55594 -4.1058475,1.54251 -5.65999993,-0.03 z"
       id="path3"
       sodipodi:nodetypes="ccscsccscscc"
       style="fill:#0284c7;fill-opacity:1" />
    <path
       fill="#dddddd"
       d="m 1.3199602,94.947512 c -1.55089442,-1.56015 -1.55089442,-4.07985 0,-5.64 0.7099999,-0.7 17.5600008,-17.17 50.8400008,-17.17 17.21,0 29.919997,8.48 42.219997,16.67 11.780002,7.88 22.990002,15.329998 37.780002,15.329998 29.77,0 45,-14.689998 45.18,-14.839998 3.78,-3.76667 9.43,1.90333 5.65,5.67 -0.7,0.7 -17.55,17.169998 -50.83,17.169998 -17.21,0 -29.92,-8.48 -42.220002,-16.669998 -11.78,-7.88 -22.989997,-15.33 -37.779997,-15.33 -29.77,0 -45.0000009,14.69 -45.1800009,14.84 -1.5707344,1.55594 -4.1058475,1.54251 -5.6599999,-0.03 z"
       id="path4"
       sodipodi:nodetypes="ccscsccscscc"
       style="fill:#0284c7;fill-opacity:1" />
  </g>
</svg>
