<?xml version="1.0" encoding="UTF-8" standalone="no"?>
<!-- Created with Inkscape (http://www.inkscape.org/) -->

<svg
   width="512"
   height="512"
   viewBox="0 0 135.46667 135.46666"
   version="1.1"
   id="svg1"
   inkscape:version="1.3 (1:1.3+202307231459+0e150ed6c4)"
   sodipodi:docname="logo_favicon_inkscape.svg"
   inkscape:export-filename="logo_favicon.png"
   inkscape:export-xdpi="96"
   inkscape:export-ydpi="96"
   xmlns:inkscape="http://www.inkscape.org/namespaces/inkscape"
   xmlns:sodipodi="http://sodipodi.sourceforge.net/DTD/sodipodi-0.dtd"
   xmlns="http://www.w3.org/2000/svg"
   xmlns:svg="http://www.w3.org/2000/svg">
  <sodipodi:namedview
     id="namedview1"
     pagecolor="#ffffff"
     bordercolor="#000000"
     borderopacity="0.25"
     inkscape:showpageshadow="2"
     inkscape:pageopacity="0.0"
     inkscape:pagecheckerboard="0"
     inkscape:deskcolor="#d1d1d1"
     inkscape:document-units="mm"
     inkscape:zoom="0.53102945"
     inkscape:cx="352.14619"
     inkscape:cy="206.20325"
     inkscape:window-width="1920"
     inkscape:window-height="1043"
     inkscape:window-x="0"
     inkscape:window-y="0"
     inkscape:window-maximized="1"
     inkscape:current-layer="layer1"
     inkscape:export-bgcolor="#ffffffff" />
  <defs
     id="defs1" />
  <g
     inkscape:label="Layer 1"
     inkscape:groupmode="layer"
     id="layer1">
    <path
       style="font-style:italic;font-weight:bold;font-size:25.4px;font-family:Ubuntu;-inkscape-font-specification:'Ubuntu Bold Italic';fill:#0284c7;fill-opacity:1;stroke-width:0;paint-order:markers fill stroke"
       d="m 127.0578,54.706473 q -1.3295,3.608619 -2.70648,6.742419 -1.32947,3.133799 -2.80142,5.98271 -1.47194,2.801427 -3.03884,5.365445 -1.5669,2.564019 -3.32372,5.080555 -1.28201,1.851791 -2.65898,3.751064 -1.37698,1.899273 -3.08632,3.41869 -1.66187,1.519418 -3.75106,2.469055 -2.04172,0.949637 -4.74819,0.949637 -1.661864,0 -2.848898,-0.332372 -1.187054,-0.284892 -2.231648,-0.807192 l 2.136678,-5.555374 q 0.949644,0.379856 1.709351,0.569784 0.759697,0.237408 1.851787,0.237408 1.66186,0 3.13379,-1.092082 1.51942,-1.0446 2.51654,-2.84891 -1.23452,-4.74818 -2.27913,-10.635926 -0.99712,-5.887746 -1.37697,-13.294911 h 7.26472 q 0.0474,1.851791 0.18993,4.083436 0.14244,2.231646 0.33237,4.510774 0.18993,2.231645 0.42735,4.368328 0.23739,2.136681 0.52228,3.846026 2.27913,-3.41869 3.98848,-7.59709 1.75683,-4.1784 3.27625,-9.211474 z"
       id="path57" />
    <path
       style="font-style:italic;font-weight:bold;font-size:25.4px;font-family:Ubuntu;-inkscape-font-specification:'Ubuntu Bold Italic';fill:#0284c7;fill-opacity:1;stroke-width:0;paint-order:markers fill stroke"
       d="m 98.996046,42.836019 c 1.424454,0 2.658984,0.158278 3.703584,0.474817 1.07624,0.284892 1.88344,0.553955 2.42157,0.807192 l -2.3741,5.555374 c -0.56978,-0.284892 -1.23453,-0.490647 -1.99424,-0.617265 -0.72804,-0.158278 -1.408604,-0.237409 -2.041701,-0.237409 -1.741001,0 -3.038835,0.443165 -3.893514,1.329492 -0.823016,0.886326 -1.392798,1.994235 -1.709348,3.323728 l -0.28488,1.234525 h 8.356793 l -1.424457,5.792783 h -8.30931 L 88.550052,72.60712 c -1.076251,4.526601 -1.224193,5.119964 -2.490377,7.620673 -1.266183,2.532365 1.505721,-1.223847 -0.01368,-0.0843 l -6.50405,-0.720692 c 0.823022,-0.759709 2.608273,1.648253 3.304672,0.540345 0.696399,-1.10791 -0.690349,0.76726 -0.15222,-0.467268 0.569783,-1.234527 -2.975942,-0.542035 -2.596082,-1.808216 0.411506,-1.297837 0.743878,-2.500709 0.997115,-3.608619 L 86.033541,53.37697 c 0.791358,-3.355382 2.21582,-5.951056 4.273361,-7.787018 2.057555,-1.835964 4.953932,-2.753946 8.689184,-2.753946 z"
       id="path56"
       sodipodi:nodetypes="sccccsccccccccccsccccsss" />
    <path
       style="font-style:italic;font-weight:bold;font-size:25.4px;font-family:Ubuntu;-inkscape-font-specification:'Ubuntu Bold Italic';fill:#0284c7;fill-opacity:1;stroke-width:0;paint-order:markers fill stroke"
       d="m 76.584679,51.667637 q -1.471933,0 -2.658981,-0.854673 -1.187044,-0.902155 -1.187044,-2.706464 0,-0.997117 0.379853,-1.851791 0.42734,-0.902154 1.092082,-1.519417 0.664746,-0.664746 1.519422,-1.044602 0.902147,-0.379854 1.899272,-0.379854 1.471933,0 2.658981,0.902156 1.18704,0.854671 1.18704,2.658981 0,0.997119 -0.42733,1.899273 -0.379859,0.854674 -1.044602,1.519419 -0.664745,0.617263 -1.5669,0.997117 -0.854669,0.379855 -1.851793,0.379855 z"
       id="path55" />
    <path
       style="font-style:italic;font-weight:bold;font-size:25.4px;font-family:Ubuntu;-inkscape-font-specification:'Ubuntu Bold Italic';fill:#0284c7;fill-opacity:1;stroke-width:0;paint-order:markers fill stroke"
       d="m 73.16599,79.681911 h -7.02731 l 5.935228,-24.975438 h 7.074795 z"
       id="path54" />
    <path
       style="font-style:italic;font-weight:bold;font-size:25.4px;font-family:Ubuntu;-inkscape-font-specification:'Ubuntu Bold Italic';fill:#0284c7;fill-opacity:1;stroke-width:0;paint-order:markers fill stroke"
       d="m 50.089836,54.706473 3.608618,7.787018 q 1.614382,-1.994235 3.038837,-3.893509 1.471936,-1.899271 2.801428,-3.893509 h 7.07479 q -1.994236,2.848909 -4.368327,5.935229 -2.37409,3.038837 -5.507891,6.362562 1.899272,3.561139 3.228764,6.599975 1.329492,2.991354 2.374091,6.077672 H 55.360319 Q 54.505646,77.355303 53.650972,75.408548 52.7963,73.461793 51.989109,71.79993 l -6.884864,7.881981 H 37.697081 L 49.045237,66.956783 42.920082,54.706473 Z"
       id="path53" />
    <path
       style="font-style:italic;font-weight:bold;font-size:25.4px;font-family:Ubuntu;-inkscape-font-specification:'Ubuntu Bold Italic';fill:#0284c7;fill-opacity:1;stroke-width:0;paint-order:markers fill stroke"
       d="m 16.330322,69.900656 q 0,-3.038837 1.0446,-5.887746 1.092082,-2.848909 3.038837,-5.033072 1.946753,-2.231645 4.7007,-3.561135 2.801425,-1.376975 6.172636,-1.376975 1.661864,0 3.086319,0.474819 1.424453,0.474817 2.469053,1.376972 1.092082,0.902155 1.661863,2.231647 0.617264,1.282009 0.617264,2.943871 0,2.658983 -1.187045,4.510774 -1.187045,1.851791 -3.323727,3.038836 -2.089199,1.139564 -4.98559,1.661864 -2.896392,0.522299 -6.315083,0.522299 0.332373,1.994237 1.424455,2.848909 1.139563,0.807192 3.561136,0.807192 1.519419,0 3.086318,-0.237408 1.566901,-0.284892 2.943874,-0.807192 l 0.522298,5.555374 q -1.32949,0.5223 -3.41869,0.949637 -2.041717,0.427335 -4.463291,0.427335 -2.943873,0 -4.98559,-0.807192 -1.994237,-0.854671 -3.276246,-2.279127 -1.234527,-1.424453 -1.804309,-3.323727 -0.569782,-1.899273 -0.569782,-4.035955 z M 30.147531,59.644583 q -2.421572,0 -4.273364,1.756828 -1.804309,1.709344 -2.37409,4.558254 2.943873,-0.09496 4.748181,-0.474818 1.804309,-0.427337 2.801429,-0.997118 0.997118,-0.569782 1.32949,-1.234528 0.332372,-0.664744 0.332372,-1.32949 0,-2.279128 -2.564018,-2.279128 z"
       id="text1" />
    <path
       style="color:#000000;fill:#0284c7;fill-opacity:1;stroke-width:1.86936;-inkscape-stroke:none;paint-order:markers fill stroke"
       d="m 9.5357594,70.400118 -2.6799072,5.655553 c 30.1379698,14.269763 43.8016988,9.475246 54.8090818,5.943991 19.274842,-6.183521 34.35685,5.429186 34.35685,5.429186 l 3.811739,-4.961846 c 0,0 -17.717084,-13.597047 -40.081764,-6.422284 -10.695722,3.431269 -21.432022,7.984072 -50.2159996,-5.6446 z"
       id="path48"
       sodipodi:nodetypes="ccsccsc" />
  </g>
</svg>
