<?xml version="1.0" encoding="UTF-8" standalone="no"?>
<!-- Created with Inkscape (http://www.inkscape.org/) -->

<svg
   width="256"
   height="94"
   viewBox="0 0 67.733333 24.870833"
   version="1.1"
   id="svg1"
   inkscape:version="1.3 (1:1.3+202307231459+0e150ed6c4)"
   sodipodi:docname="logo_inkscape.svg"
   inkscape:export-filename="logo_ubuntu.svg"
   inkscape:export-xdpi="96"
   inkscape:export-ydpi="96"
   xmlns:inkscape="http://www.inkscape.org/namespaces/inkscape"
   xmlns:sodipodi="http://sodipodi.sourceforge.net/DTD/sodipodi-0.dtd"
   xmlns="http://www.w3.org/2000/svg"
   xmlns:svg="http://www.w3.org/2000/svg">
  <sodipodi:namedview
     id="namedview1"
     pagecolor="#ffffff"
     bordercolor="#000000"
     borderopacity="0.25"
     inkscape:showpageshadow="2"
     inkscape:pageopacity="0.0"
     inkscape:pagecheckerboard="0"
     inkscape:deskcolor="#d1d1d1"
     inkscape:document-units="mm"
     inkscape:zoom="3.0039562"
     inkscape:cx="131.49326"
     inkscape:cy="9.8203829"
     inkscape:window-width="1920"
     inkscape:window-height="1043"
     inkscape:window-x="0"
     inkscape:window-y="0"
     inkscape:window-maximized="1"
     inkscape:current-layer="svg1" />
  <defs
     id="defs1" />
  <g
     inkscape:label="Layer 1"
     inkscape:groupmode="layer"
     id="layer1">
    <path
       style="font-style:italic;font-weight:bold;font-size:25.4px;font-family:Ubuntu;-inkscape-font-specification:'Ubuntu Bold Italic';stroke-width:0;paint-order:markers fill stroke"
       d="m 67.395425,6.6145834 q -0.7112,1.9304 -1.4478,3.6067996 -0.7112,1.6764 -1.4986,3.2004 -0.7874,1.4986 -1.6256,2.8702 -0.8382,1.3716 -1.778,2.7178 -0.6858,0.9906 -1.4224,2.0066 -0.7366,1.016 -1.651,1.8288 -0.889,0.8128 -2.0066,1.3208 -1.0922,0.508 -2.54,0.508 -0.889,0 -1.524,-0.1778 -0.635,-0.1524 -1.1938,-0.4318 l 1.143,-2.9718 q 0.508,0.2032 0.9144,0.3048 0.4064,0.127 0.9906,0.127 0.889,0 1.6764,-0.5842 0.8128,-0.5588 1.3462,-1.524 -0.6604,-2.54 -1.2192,-5.6896 -0.5334,-3.1496 -0.7366,-7.1119996 h 3.8862 q 0.0254,0.9906 0.1016,2.1844 0.0762,1.1938 0.1778,2.4129996 0.1016,1.1938 0.2286,2.3368 0.127,1.143 0.2794,2.0574 1.2192,-1.8288 2.1336,-4.064 0.9398,-2.2351996 1.7526,-4.9275996 z"
       id="path57" />
    <path
       style="font-style:italic;font-weight:bold;font-size:25.4px;font-family:Ubuntu;-inkscape-font-specification:'Ubuntu Bold Italic';stroke-width:0;paint-order:markers fill stroke"
       d="m 52.38403,0.26458351 c 0.762,0 1.4224,0.0846667 1.9812,0.254 0.575733,0.15239999 1.007533,0.29633332 1.2954,0.43179999 l -1.27,2.9718 c -0.3048,-0.1524 -0.6604,-0.2624667 -1.0668,-0.3302 -0.389467,-0.084667 -0.753533,-0.127 -1.0922,-0.127 -0.931333,0 -1.6256,0.2370667 -2.0828,0.7112 -0.440267,0.4741333 -0.745067,1.0667999 -0.9144,1.7779999 l -0.1524,0.6604 h 4.4704 l -0.762,3.0988 h -4.445 l -1.5494,6.4769996 c -0.575733,2.421467 -0.654874,2.738882 -1.332207,4.076615 -0.677333,1.354667 0.805472,-0.654687 -0.0073,-0.04509 l -3.479285,-0.38553 c 0.440267,-0.4064 1.395273,0.881719 1.767806,0.289053 0.372533,-0.592667 -0.369299,0.410439 -0.08143,-0.249961 0.3048,-0.6604 -1.591954,-0.289957 -1.388754,-0.96729 0.220133,-0.694267 0.397933,-1.337733 0.5334,-1.9304 l 2.6416,-11.0743996 c 0.423333,-1.7949333 1.185333,-3.1834666 2.286,-4.1655999 1.100667,-0.98213333 2.650067,-1.47319999 4.6482,-1.47319999 z"
       id="path56"
       sodipodi:nodetypes="sccccsccccccccccsccccsss" />
    <path
       style="font-style:italic;font-weight:bold;font-size:25.4px;font-family:Ubuntu;-inkscape-font-specification:'Ubuntu Bold Italic';stroke-width:0;paint-order:markers fill stroke"
       d="m 40.395255,4.9889834 q -0.7874,0 -1.4224,-0.4572 -0.635,-0.4825999 -0.635,-1.4477999 0,-0.5334 0.2032,-0.9906 0.2286,-0.4826 0.5842,-0.8128 0.3556,-0.3556 0.8128,-0.5588 0.4826,-0.20319999 1.016,-0.20319999 0.7874,0 1.4224,0.48259999 0.635,0.4572 0.635,1.4224 0,0.5334 -0.2286,1.016 -0.2032,0.4572 -0.5588,0.8128 -0.3556,0.3301999 -0.8382,0.5333999 -0.4572,0.2032 -0.9906,0.2032 z"
       id="path55" />
    <path
       style="font-style:italic;font-weight:bold;font-size:25.4px;font-family:Ubuntu;-inkscape-font-specification:'Ubuntu Bold Italic';stroke-width:0;paint-order:markers fill stroke"
       d="m 38.566455,19.974983 h -3.7592 l 3.175,-13.3603996 h 3.7846 z"
       id="path54" />
    <path
       style="font-style:italic;font-weight:bold;font-size:25.4px;font-family:Ubuntu;-inkscape-font-specification:'Ubuntu Bold Italic';stroke-width:0;paint-order:markers fill stroke"
       d="m 26.222061,6.6145834 1.9304,4.1655996 q 0.8636,-1.0667996 1.6256,-2.0827996 0.7874,-1.016 1.4986,-2.0828 h 3.7846 q -1.0668,1.524 -2.3368,3.175 -1.27,1.6255996 -2.9464,3.4035996 1.016,1.905 1.7272,3.5306 0.7112,1.6002 1.27,3.2512 h -3.7338 q -0.4572,-1.2446 -0.9144,-2.286 -0.4572,-1.0414 -0.889,-1.9304 l -3.683,4.2164 h -3.9624 l 6.0706,-6.8072 -3.2766,-6.5531996 z"
       id="path53" />
    <path
       style="font-style:italic;font-weight:bold;font-size:25.4px;font-family:Ubuntu;-inkscape-font-specification:'Ubuntu Bold Italic';stroke-width:0;paint-order:markers fill stroke"
       d="m 8.1626933,14.742583 q 0,-1.6256 0.5588,-3.1496 0.5842,-1.524 1.6255997,-2.6923996 1.0414,-1.1938 2.5146,-1.905 1.4986,-0.7366 3.302,-0.7366 0.889,0 1.651,0.254 0.761999,0.254 1.320799,0.7366 0.5842,0.4826 0.889,1.1938 0.3302,0.6858 0.3302,1.5747996 0,1.4224 -0.635,2.413 -0.635,0.9906 -1.778,1.6256 -1.117599,0.6096 -2.666999,0.889 -1.5494,0.2794 -3.3782,0.2794 0.1778,1.0668 0.762,1.524 0.6096,0.4318 1.905,0.4318 0.8128,0 1.651,-0.127 0.8382,-0.1524 1.5748,-0.4318 l 0.279399,2.9718 q -0.711199,0.2794 -1.828799,0.508 -1.0922,0.2286 -2.3876,0.2286 -1.5748,0 -2.667,-0.4318 -1.0668,-0.4572 -1.7525997,-1.2192 -0.6604,-0.762 -0.9652,-1.778 -0.3048,-1.016 -0.3048,-2.159 z M 15.554093,9.2561834 q -1.2954,0 -2.286,0.9397996 -0.9652,0.9144 -1.27,2.4384 1.5748,-0.0508 2.54,-0.254 0.9652,-0.2286 1.4986,-0.5334 0.5334,-0.3048 0.7112,-0.6604 0.1778,-0.3556 0.1778,-0.7112 0,-1.2191996 -1.3716,-1.2191996 z"
       id="text1" />
    <path
       style="color:#000000;fill:#000000;-inkscape-stroke:none;paint-order:markers fill stroke"
       d="m 1.6972656,15.009766 -1.43359372,3.02539 c 16.12205412,7.63349 26.26208312,5.068703 32.15039012,3.179688 10.310913,-3.307822 18.378907,2.904297 18.378907,2.904297 l 2.039062,-2.654297 c 0,0 -9.477611,-7.273626 -21.441406,-3.435547 -5.721586,1.835529 -14.295612,4.271012 -29.6933594,-3.019531 z"
       id="path48" />
  </g>
</svg>
